<?xml version="1.0" encoding="UTF-8" standalone="no"?> <svg width="64" height="64" viewBox="0 0 64 64" fill="none" xmlns="http://www.w3.org/2000/svg">
<path d="M56 2.5H8C6.54212 2.50264 5.14471 3.08295 4.11383 4.11383C3.08295 5.14471 2.50264 6.54212 2.5 8V56C2.50264 57.4579 3.08295 58.8553 4.11383 59.8862C5.14471 60.917 6.54212 61.4974 8 61.5H56C57.4579 61.4974 58.8553 60.917 59.8862 59.8862C60.917 58.8553 61.4974 57.4579 61.5 56V8C61.4974 6.54212 60.917 5.14471 59.8862 4.11383C58.8553 3.08295 57.4579 2.50264 56 2.5V2.5ZM8 5.5H56C56.663 5.5 57.2989 5.76339 57.7678 6.23223C58.2366 6.70107 58.5 7.33696 58.5 8V46.83L46 34.32C45.719 34.0386 45.3377 33.8804 44.94 33.88C44.5423 33.8804 44.161 34.0386 43.88 34.32L35.6 42.61L20.91 27.93C20.7714 27.7897 20.6064 27.6783 20.4244 27.6023C20.2424 27.5263 20.0472 27.4871 19.85 27.4871C19.6528 27.4871 19.4576 27.5263 19.2756 27.6023C19.0936 27.6783 18.9286 27.7897 18.79 27.93L5.5 41.22V8C5.5 7.33696 5.76339 6.70107 6.23223 6.23223C6.70107 5.76339 7.33696 5.5 8 5.5V5.5ZM5.5 56V45.46L19.85 31.11L47.24 58.5H8C7.33696 58.5 6.70107 58.2366 6.23223 57.7678C5.76339 57.2989 5.5 56.663 5.5 56V56ZM56 58.5H51.48L37.71 44.73L44.93 37.5L58.5 51.07V56C58.5 56.663 58.2366 57.2989 57.7678 57.7678C57.2989 58.2366 56.663 58.5 56 58.5V58.5Z" fill="black"/>
<path d="M33.1501 24.7601C34.578 24.7601 35.9739 24.3366 37.1613 23.5433C38.3486 22.7499 39.274 21.6223 39.8205 20.303C40.3669 18.9838 40.5099 17.5321 40.2313 16.1315C39.9527 14.731 39.2651 13.4445 38.2554 12.4348C37.2456 11.425 35.9591 10.7374 34.5586 10.4588C33.1581 10.1802 31.7064 10.3232 30.3871 10.8697C29.0678 11.4161 27.9402 12.3415 27.1468 13.5289C26.3535 14.7162 25.9301 16.1121 25.9301 17.5401C25.9327 19.4541 26.6942 21.289 28.0477 22.6425C29.4011 23.9959 31.236 24.7574 33.1501 24.7601V24.7601ZM33.1501 13.3201C33.9847 13.3201 34.8006 13.5676 35.4946 14.0313C36.1885 14.495 36.7294 15.154 37.0488 15.9251C37.3682 16.6963 37.4518 17.5448 37.289 18.3634C37.1261 19.182 36.7242 19.9339 36.134 20.5241C35.5439 21.1142 34.7919 21.5162 33.9733 21.679C33.1547 21.8418 32.3062 21.7582 31.5351 21.4388C30.764 21.1194 30.105 20.5786 29.6413 19.8846C29.1776 19.1906 28.9301 18.3747 28.9301 17.5401C28.9301 16.9859 29.0392 16.4371 29.2513 15.9251C29.4634 15.4132 29.7742 14.9479 30.1661 14.5561C30.5579 14.1642 31.0231 13.8534 31.5351 13.6413C32.0471 13.4292 32.5959 13.3201 33.1501 13.3201V13.3201Z" fill="black"/>
</svg>
